<mxfile host="app.diagrams.net" modified="2022-07-21T22:50:10.310Z" agent="5.0 (X11; Linux x86_64) AppleWebKit/537.36 (KHTML, like Gecko) Chrome/103.0.5060.134 Safari/537.36" etag="NOXt1KqgaFhdNKRoCqUt" version="20.1.4" type="github">
  <diagram id="ppYJlepAe791Y_FDtn2S" name="Página-1">
    <mxGraphModel dx="723" dy="378" grid="1" gridSize="10" guides="1" tooltips="1" connect="1" arrows="1" fold="1" page="1" pageScale="1" pageWidth="827" pageHeight="1169" math="0" shadow="0">
      <root>
        <mxCell id="0" />
        <mxCell id="1" parent="0" />
        <mxCell id="Fx6vc2DYP0KxwC2idTUq-6" value="animais" style="swimlane;fontStyle=0;childLayout=stackLayout;horizontal=1;startSize=30;horizontalStack=0;resizeParent=1;resizeParentMax=0;resizeLast=0;collapsible=1;marginBottom=0;fontSize=11;gradientColor=none;" vertex="1" parent="1">
          <mxGeometry x="40" y="120" width="140" height="210" as="geometry" />
        </mxCell>
        <mxCell id="Fx6vc2DYP0KxwC2idTUq-7" value="* id" style="text;strokeColor=none;fillColor=none;align=left;verticalAlign=middle;spacingLeft=4;spacingRight=4;overflow=hidden;points=[[0,0.5],[1,0.5]];portConstraint=eastwest;rotatable=0;fontSize=11;" vertex="1" parent="Fx6vc2DYP0KxwC2idTUq-6">
          <mxGeometry y="30" width="140" height="30" as="geometry" />
        </mxCell>
        <mxCell id="Fx6vc2DYP0KxwC2idTUq-8" value="* Nome;" style="text;strokeColor=none;fillColor=none;align=left;verticalAlign=middle;spacingLeft=4;spacingRight=4;overflow=hidden;points=[[0,0.5],[1,0.5]];portConstraint=eastwest;rotatable=0;fontSize=11;" vertex="1" parent="Fx6vc2DYP0KxwC2idTUq-6">
          <mxGeometry y="60" width="140" height="30" as="geometry" />
        </mxCell>
        <mxCell id="Fx6vc2DYP0KxwC2idTUq-9" value="* Espécie;" style="text;strokeColor=none;fillColor=none;align=left;verticalAlign=middle;spacingLeft=4;spacingRight=4;overflow=hidden;points=[[0,0.5],[1,0.5]];portConstraint=eastwest;rotatable=0;fontSize=11;" vertex="1" parent="Fx6vc2DYP0KxwC2idTUq-6">
          <mxGeometry y="90" width="140" height="30" as="geometry" />
        </mxCell>
        <mxCell id="Fx6vc2DYP0KxwC2idTUq-11" value="* Sexo;" style="text;strokeColor=none;fillColor=none;align=left;verticalAlign=middle;spacingLeft=4;spacingRight=4;overflow=hidden;points=[[0,0.5],[1,0.5]];portConstraint=eastwest;rotatable=0;fontSize=11;" vertex="1" parent="Fx6vc2DYP0KxwC2idTUq-6">
          <mxGeometry y="120" width="140" height="30" as="geometry" />
        </mxCell>
        <mxCell id="Fx6vc2DYP0KxwC2idTUq-12" value="* Idade;" style="text;strokeColor=none;fillColor=none;align=left;verticalAlign=middle;spacingLeft=4;spacingRight=4;overflow=hidden;points=[[0,0.5],[1,0.5]];portConstraint=eastwest;rotatable=0;fontSize=11;" vertex="1" parent="Fx6vc2DYP0KxwC2idTUq-6">
          <mxGeometry y="150" width="140" height="30" as="geometry" />
        </mxCell>
        <mxCell id="Fx6vc2DYP0KxwC2idTUq-10" value="* Localização." style="text;strokeColor=none;fillColor=none;align=left;verticalAlign=middle;spacingLeft=4;spacingRight=4;overflow=hidden;points=[[0,0.5],[1,0.5]];portConstraint=eastwest;rotatable=0;fontSize=11;" vertex="1" parent="Fx6vc2DYP0KxwC2idTUq-6">
          <mxGeometry y="180" width="140" height="30" as="geometry" />
        </mxCell>
        <mxCell id="Fx6vc2DYP0KxwC2idTUq-13" value="slh" style="swimlane;fontStyle=0;childLayout=stackLayout;horizontal=1;startSize=30;horizontalStack=0;resizeParent=1;resizeParentMax=0;resizeLast=0;collapsible=1;marginBottom=0;fontSize=11;gradientColor=none;" vertex="1" parent="1">
          <mxGeometry x="250" y="165" width="140" height="90" as="geometry" />
        </mxCell>
        <mxCell id="Fx6vc2DYP0KxwC2idTUq-14" value="* id_animal" style="text;strokeColor=none;fillColor=none;align=left;verticalAlign=middle;spacingLeft=4;spacingRight=4;overflow=hidden;points=[[0,0.5],[1,0.5]];portConstraint=eastwest;rotatable=0;fontSize=11;" vertex="1" parent="Fx6vc2DYP0KxwC2idTUq-13">
          <mxGeometry y="30" width="140" height="30" as="geometry" />
        </mxCell>
        <mxCell id="Fx6vc2DYP0KxwC2idTUq-15" value="* id_cuidador" style="text;strokeColor=none;fillColor=none;align=left;verticalAlign=middle;spacingLeft=4;spacingRight=4;overflow=hidden;points=[[0,0.5],[1,0.5]];portConstraint=eastwest;rotatable=0;fontSize=11;" vertex="1" parent="Fx6vc2DYP0KxwC2idTUq-13">
          <mxGeometry y="60" width="140" height="30" as="geometry" />
        </mxCell>
        <mxCell id="Fx6vc2DYP0KxwC2idTUq-21" value="cuidadores" style="swimlane;fontStyle=0;childLayout=stackLayout;horizontal=1;startSize=30;horizontalStack=0;resizeParent=1;resizeParentMax=0;resizeLast=0;collapsible=1;marginBottom=0;fontSize=11;gradientColor=none;" vertex="1" parent="1">
          <mxGeometry x="440" y="280" width="140" height="120" as="geometry" />
        </mxCell>
        <mxCell id="Fx6vc2DYP0KxwC2idTUq-22" value="* id" style="text;strokeColor=none;fillColor=none;align=left;verticalAlign=middle;spacingLeft=4;spacingRight=4;overflow=hidden;points=[[0,0.5],[1,0.5]];portConstraint=eastwest;rotatable=0;fontSize=11;" vertex="1" parent="Fx6vc2DYP0KxwC2idTUq-21">
          <mxGeometry y="30" width="140" height="30" as="geometry" />
        </mxCell>
        <mxCell id="Fx6vc2DYP0KxwC2idTUq-23" value="* nome" style="text;strokeColor=none;fillColor=none;align=left;verticalAlign=middle;spacingLeft=4;spacingRight=4;overflow=hidden;points=[[0,0.5],[1,0.5]];portConstraint=eastwest;rotatable=0;fontSize=11;" vertex="1" parent="Fx6vc2DYP0KxwC2idTUq-21">
          <mxGeometry y="60" width="140" height="30" as="geometry" />
        </mxCell>
        <mxCell id="Fx6vc2DYP0KxwC2idTUq-24" value="* id_gerente" style="text;strokeColor=none;fillColor=none;align=left;verticalAlign=middle;spacingLeft=4;spacingRight=4;overflow=hidden;points=[[0,0.5],[1,0.5]];portConstraint=eastwest;rotatable=0;fontSize=11;" vertex="1" parent="Fx6vc2DYP0KxwC2idTUq-21">
          <mxGeometry y="90" width="140" height="30" as="geometry" />
        </mxCell>
        <mxCell id="Fx6vc2DYP0KxwC2idTUq-25" value="gerente" style="swimlane;fontStyle=0;childLayout=stackLayout;horizontal=1;startSize=30;horizontalStack=0;resizeParent=1;resizeParentMax=0;resizeLast=0;collapsible=1;marginBottom=0;fontSize=11;gradientColor=none;" vertex="1" parent="1">
          <mxGeometry x="430" y="45" width="140" height="90" as="geometry" />
        </mxCell>
        <mxCell id="Fx6vc2DYP0KxwC2idTUq-26" value="* id" style="text;strokeColor=none;fillColor=none;align=left;verticalAlign=middle;spacingLeft=4;spacingRight=4;overflow=hidden;points=[[0,0.5],[1,0.5]];portConstraint=eastwest;rotatable=0;fontSize=11;" vertex="1" parent="Fx6vc2DYP0KxwC2idTUq-25">
          <mxGeometry y="30" width="140" height="30" as="geometry" />
        </mxCell>
        <mxCell id="Fx6vc2DYP0KxwC2idTUq-27" value="* nome" style="text;strokeColor=none;fillColor=none;align=left;verticalAlign=middle;spacingLeft=4;spacingRight=4;overflow=hidden;points=[[0,0.5],[1,0.5]];portConstraint=eastwest;rotatable=0;fontSize=11;" vertex="1" parent="Fx6vc2DYP0KxwC2idTUq-25">
          <mxGeometry y="60" width="140" height="30" as="geometry" />
        </mxCell>
        <mxCell id="Fx6vc2DYP0KxwC2idTUq-31" value="" style="endArrow=classic;html=1;rounded=0;fontSize=11;" edge="1" parent="1">
          <mxGeometry width="50" height="50" relative="1" as="geometry">
            <mxPoint x="190" y="200" as="sourcePoint" />
            <mxPoint x="240" y="200" as="targetPoint" />
          </mxGeometry>
        </mxCell>
        <mxCell id="Fx6vc2DYP0KxwC2idTUq-33" value="" style="endArrow=classic;html=1;rounded=0;fontSize=11;" edge="1" parent="1">
          <mxGeometry width="50" height="50" relative="1" as="geometry">
            <mxPoint x="500" y="270" as="sourcePoint" />
            <mxPoint x="500" y="150" as="targetPoint" />
          </mxGeometry>
        </mxCell>
        <mxCell id="Fx6vc2DYP0KxwC2idTUq-34" value="" style="curved=1;endArrow=classic;html=1;rounded=0;fontSize=11;" edge="1" parent="1">
          <mxGeometry width="50" height="50" relative="1" as="geometry">
            <mxPoint x="430" y="360" as="sourcePoint" />
            <mxPoint x="300" y="270" as="targetPoint" />
            <Array as="points">
              <mxPoint x="345" y="360" />
              <mxPoint x="295" y="310" />
            </Array>
          </mxGeometry>
        </mxCell>
      </root>
    </mxGraphModel>
  </diagram>
</mxfile>
